<svg id="Capa_1" enable-background="new 0 0 512 512" height="512" viewBox="0 0 512 512" width="512" xmlns="http://www.w3.org/2000/svg"><g><g><path clip-rule="evenodd" d="m11.361 400.298v88.385c0 3.515 2.863 6.378 6.378 6.378h74.549 224.244c66.358 1.814 138.044-128.892 39.627-164.325-14.4-13.295-34.865-22.224-55.274-24.576l-210.354.652c-44.786 7.511-79.17 46.657-79.17 93.486z" fill="#918291" fill-rule="evenodd"/></g><g><path clip-rule="evenodd" d="m124.404 252.272c-19.53 8.022-34.128 27.269-34.128 49.607 0 1.672.085 3.317.255 4.932 2.494 27.184 25.54 48.643 53.318 48.614h44.418c28.63-52.356 4.649-103.153-63.863-103.153z" fill="#c6d0da" fill-rule="evenodd"/></g><g><path clip-rule="evenodd" d="m203.773 355.425 43.709-.028c28.006 0 51.164-21.799 53.404-49.238.113-1.446.17-2.863.17-4.337 0-22.28-13.804-41.528-33.306-49.55-36.879 0-71.432 4.479-63.977 103.153z" fill="#c6d0da" fill-rule="evenodd"/></g><g><path clip-rule="evenodd" d="m149.235 305.507c0 27.014 17.461 49.181 39.032 49.918h15.505c21.486-.879 38.834-22.989 38.834-49.918v-32.599c-32.087-19.474-58.166-22.082-93.371 0z" fill="#ffbc85" fill-rule="evenodd"/></g><g><path clip-rule="evenodd" d="m356.16 330.735c4.705 9.865 14.173 19.304 32.399 25.115l20.636 6.236 23.073-6.265c32.966-12.586 43.199-42.945 40.449-60.52-.935-6.038-2.239-13.861-10.941-15.477-7.625-1.446-10.204 4.677-13.209 10.63-16.837 33.591-60.717 20.466-77.299 7.71-13.748-10.573-20.777 18.595-16.129 30.189.312.795.652 1.589 1.021 2.382z" fill="#ccf49f" fill-rule="evenodd"/></g><g><path clip-rule="evenodd" d="m311.884 448.997v32.173c0 5.187 1.729 10.006 4.649 13.89 4.252 5.726 11.055 9.439 18.68 9.439h142.097c12.841 0 23.329-10.517 23.329-23.329v-31.521c0-44.929-23.215-88.952-68.37-93.827h-43.709c-35.547 0-76.676 31.266-76.676 93.175z" fill="#ccf49f" fill-rule="evenodd"/></g><g><path clip-rule="evenodd" d="m79.221 153.258c-25.795 0-23.414 52.328 5.839 52.328h9.978c9.808-21.175 8.957-37.446-4.053-52.328z" fill="#f5a96c" fill-rule="evenodd"/></g><g><path clip-rule="evenodd" d="m124.404 252.272c7.483 7.767 15.874 14.769 24.831 20.636 7.058 4.592 14.456 8.447 22.053 11.367 8.73 3.175 16.526 4.932 24.207 5.301 7.653-.368 15.448-2.126 24.179-5.301 7.965-2.863 15.647-6.746 22.932-11.367 9.156-5.839 17.631-12.869 25.143-20.636 10.885-11.254 19.729-24.095 25.568-37.106l-88.524-24.01-105.985 24.039c5.896 13.011 14.768 25.823 25.596 37.077z" fill="#918291" fill-rule="evenodd"/></g><g><path clip-rule="evenodd" d="m297.059 205.585h10.29c29.253 0 31.634-52.328 5.839-52.328h-11.905c-15.449 15.251-16.498 31.607-4.224 52.328z" fill="#f5a96c" fill-rule="evenodd"/></g><g><path clip-rule="evenodd" d="m90.985 153.258 105.361 8.985 104.936-8.985v-34.753l-102.527-17.178-107.77 17.659z" fill="#918291" fill-rule="evenodd"/></g><g><path clip-rule="evenodd" d="m195.496 7.499c-40.676 1.077-75.967 37.021-93.626 73.928l98.077 16.668 89.148-16.668c-17.661-36.907-52.951-72.85-93.599-73.928z" fill="#918291" fill-rule="evenodd"/></g><g><path clip-rule="evenodd" d="m98.128 121.169 195.926.113c2.693.113 5.187-.964 7.228-2.778 3.118-2.806 5.131-7.313 5.131-11.906v-10.09c0-8.022-6.151-13.521-13.578-14.57-3.061-.425-6.123-.85-9.184-1.247-12.019-1.559-24.009-2.778-36.028-3.713-17.404-1.332-34.78-2.013-52.128-2.069-32.371.085-64.827 2.409-97.368 7.03-7.427 1.049-13.578 6.548-13.578 14.57v10.091c0 5.216 2.579 9.808 6.435 12.387 2.07 1.388 4.508 2.182 7.144 2.182z" fill="#c6d0da" fill-rule="evenodd"/></g><g><path clip-rule="evenodd" d="m90.985 153.258v29.112c0 5.131.68 10.432 1.928 15.817.595 2.466 1.304 4.932 2.126 7.398 1.049 3.203 2.324 6.406 3.77 9.609 26.758 5.499 51.901 5.329 76.704-.028 5.953-1.304 18.765-8.022 20.437-15.534.057-.17.283-.17.34 0 1.701 7.512 14.513 14.23 20.466 15.534 24.831 5.358 49.775 5.528 76.562 0 1.446-3.203 2.693-6.406 3.742-9.581.822-2.495 1.531-4.961 2.126-7.427 1.276-5.471 2.098-11.65 2.098-18v-26.901h-210.299z" fill="#fed1a3" fill-rule="evenodd"/></g><g><path clip-rule="evenodd" d="m273.362 185.743c-.567 2.466-1.276 4.932-2.098 7.427-1.049 3.203-2.296 6.406-3.742 9.581-.709 1.616-1.474 3.203-2.268 4.791-2.013 3.94-4.252 7.824-6.775 11.65 11.367-.255 22.903-1.587 34.837-4.025 1.446-3.203 2.693-6.406 3.742-9.581.822-2.495 1.531-4.961 2.126-7.427 1.276-5.471 2.098-11.65 2.098-18v-26.901h-25.795v2.211 12.274c.001 6.378-.822 12.529-2.125 18z" fill="#ffbc85" fill-rule="evenodd"/></g><g><path clip-rule="evenodd" d="m241.954 239.885c-7.512 7.767-15.987 14.797-25.143 20.608-.085.057-.142.085-.227.142-7.228 4.564-14.825 8.391-22.705 11.254-2.835 1.02-5.556 1.899-8.22 2.608-5.556 1.531-10.771 2.438-15.987 2.665-6.293-.283-12.671-1.531-19.615-3.713 6.803 4.337 13.918 8.022 21.231 10.828 8.73 3.175 16.497 4.932 24.151 5.301h.057c4.053-.198 8.135-.765 12.359-1.757 3.798-.85 7.71-2.041 11.82-3.543 7.965-2.863 15.647-6.746 22.932-11.367 9.156-5.839 17.631-12.869 25.143-20.636 10.885-11.254 19.729-24.095 25.568-37.106-11.934 2.438-23.47 3.77-34.837 4.025-4.706 7.226-10.291 14.228-16.527 20.691z" fill="#685d68" fill-rule="evenodd"/></g><g><path clip-rule="evenodd" d="m176.844 10.419c31.152 9.014 57.542 37.134 72.849 66.728 11.31.907 22.62 2.098 33.958 3.543 1.814.227 3.628.482 5.442.737-17.659-36.907-52.95-72.851-93.598-73.928-6.377.17-12.585 1.191-18.651 2.92z" fill="#685d68" fill-rule="evenodd"/></g><g><path clip-rule="evenodd" d="m268.94 90.98.198 15.619c.028 2.183-.454 4.337-1.276 6.293-.907 2.183-2.239 4.139-3.883 5.584-1.786 1.616-3.912 2.636-6.264 2.806h17.773 18.566c2.693.113 5.187-.964 7.228-2.778 3.118-2.806 5.131-7.313 5.131-11.906v-10.09c0-8.022-6.151-13.521-13.578-14.57-1.247-.17-2.494-.34-3.742-.51l-5.442-.737c-11.338-1.446-22.648-2.636-33.958-3.543 8.248.708 19.105 3.769 19.247 13.832z" fill="#a0aab7" fill-rule="evenodd"/></g><g><path clip-rule="evenodd" d="m275.488 147.05v6.208h25.795v-34.753c-2.041 1.814-4.535 2.891-7.228 2.778h-18.566-17.773l-159.587-.113c-2.636 0-5.074-.794-7.143-2.183v17.121h177.983c6.802 0 6.519 4.705 6.519 10.942z" fill="#685d68" fill-rule="evenodd"/></g><g><path clip-rule="evenodd" d="m149.235 272.908.028 34.214c20.267 7.71 53.97 9.638 70.354 1.758 9.467-4.535 6.831 1.899 6.831 15.25v3.118c-.085 7.824-1.672 15.222-4.365 21.77 12.047-8.447 20.296-24.406 20.522-42.69.142-11.112 0-22.309 0-33.421-7.285 4.621-14.967 8.504-22.932 11.367-4.11 1.502-8.022 2.693-11.82 3.543-4.224.992-8.305 1.559-12.359 1.757-8.22-.34-16.497-2.494-24.207-5.301-7.313-2.806-14.428-6.491-21.231-10.828-.254-.196-.537-.366-.821-.537z" fill="#f5a96c" fill-rule="evenodd"/></g><g><path clip-rule="evenodd" d="m249.239 268.373c14.371 7.54 24.944 21.43 27.949 37.843.567 3.118.85 6.35.85 9.609 0 1.474-.057 2.891-.17 4.337-1.02 12.756-6.576 24.293-15.023 32.967 20.692-6.236 36.226-24.747 38.04-46.97.113-1.446.17-2.863.17-4.337 0-22.28-13.804-41.528-33.306-49.55-5.669 5.868-11.877 11.282-18.51 16.101z" fill="#a0aab7" fill-rule="evenodd"/></g><g><path clip-rule="evenodd" d="m321.379 351.825c1.502.907 12.982 8.334 25.029 18.822 12.954-9.865 28.006-14.825 42.15-14.797-18.226-5.811-27.694-15.25-32.399-25.115-14.4-13.295-34.865-22.224-55.274-24.576-.964 11.962-5.924 22.876-13.521 31.351-6.52 7.257-14.967 12.756-24.519 15.619-4.875 1.474-10.034 2.268-15.363 2.268-34.554 0-69.079.028-103.632.028-27.779.028-50.824-21.43-53.318-48.614-10.119 1.701-19.7 5.017-28.459 9.638 6.945 30.614 34.44 63.638 67.066 63.638 44.361-.028 88.722-.028 133.055-.057 16.837 0 32.314-12.983 44.276-25.484 7.766-8.078 4.818-8.673 14.909-2.721z" fill="#685d68" fill-rule="evenodd"/></g><g><path d="m155.394 193.527c-.532 0-1.072-.057-1.613-.175l-19.786-4.337c-4.046-.887-6.607-4.886-5.72-8.932s4.888-6.606 8.932-5.72l19.786 4.337c4.046.887 6.607 4.886 5.72 8.932-.769 3.505-3.873 5.895-7.319 5.895z"/></g><g><path d="m236.845 193.527c-3.448 0-6.552-2.392-7.319-5.898-.886-4.046 1.677-8.044 5.723-8.93l19.814-4.337c4.045-.883 8.044 1.677 8.93 5.723s-1.676 8.044-5.723 8.93l-19.813 4.337c-.541.119-1.081.175-1.612.175z"/></g><g><path clip-rule="evenodd" d="m444.967 296.408c2.154 17.717-8.305 47.084-40.591 59.414h27.892c32.966-12.586 43.199-42.945 40.449-60.52-.935-6.038-2.239-13.861-10.941-15.477-7.625-1.446-10.204 4.677-13.209 10.63-1.077 2.183-2.296 4.167-3.6 5.953z" fill="#95d6a4" fill-rule="evenodd"/></g><g><path clip-rule="evenodd" d="m419.739 359.224c35.035 12.076 53.007 50.91 53.007 90.426v31.521c0 12.813-10.488 23.329-23.329 23.329h27.892c12.841 0 23.329-10.517 23.329-23.329v-31.521c0-44.929-23.215-88.952-68.37-93.827h-27.892c5.442.594 10.573 1.757 15.363 3.401z" fill="#95d6a4" fill-rule="evenodd"/></g><g><path d="m489.634 383.565c-9.556-14.383-22.033-24.666-36.7-30.395 23.519-17.121 29.604-43.623 27.195-59.017-.96-6.199-2.959-19.099-16.955-21.697-12.775-2.421-18.014 8.046-20.826 13.671l-.485.967c-4.394 8.766-11.015 14.054-20.242 16.168-16.699 3.827-36.823-4.153-45.779-11.042-6.232-4.792-13.334-5.088-19-.796-5.904 4.473-9.426 13.63-10.39 22.683-11.347-6.966-24.407-11.945-37.935-14.38-.693-20.478-11.521-38.922-28.625-49.612 9.659-11.386 17.43-24.037 22.461-37.03h4.997c20.25 0 31.178-18.85 31.178-36.586 0-7.753-2.049-14.995-5.769-20.392-4.601-6.674-11.551-10.35-19.57-10.35h-4.405v-24.374c3.245-4.105 5.131-9.44 5.131-14.785v-10.09c0-11.225-8.151-20.227-19.859-21.965-17.587-34.451-53.053-73.341-98.359-74.541-.132-.002-.264-.002-.397 0-45.326 1.201-80.8 40.09-98.388 74.54-11.7 1.729-19.859 10.735-19.859 21.965v10.091c0 6.217 2.472 11.838 6.434 15.853v23.305h-4.263c-8.02 0-14.97 3.676-19.57 10.35-3.72 5.396-5.768 12.638-5.768 20.392 0 17.736 10.927 36.586 31.177 36.586h4.712c.525 1.344 1.074 2.686 1.657 4.023.215.799.555 1.554 1.012 2.234 4.955 10.735 11.736 21.172 19.838 30.752-17.65 10.974-29.073 30.187-29.48 50.655-21.013 4.965-40.123 16.572-54.344 33.183-15.859 18.524-24.593 42.092-24.593 66.365v88.385c0 7.652 6.226 13.878 13.878 13.878h295.303c5.61 5.813 13.472 9.439 22.17 9.439h142.094c16.999 0 30.829-13.83 30.829-30.829v-31.522c0-24.651-6.573-48.121-18.505-66.082zm-180.852-203.407v-19.401h4.405c3.109 0 5.403 1.228 7.22 3.863 1.982 2.875 3.119 7.205 3.119 11.879 0 8.677-4.309 21.586-16.178 21.586h-.473c1.246-5.905 1.907-12.063 1.907-17.927zm-223.722 17.927c-11.869 0-16.177-12.909-16.177-21.586 0-4.674 1.137-9.003 3.119-11.879 1.816-2.635 4.11-3.863 7.22-3.863h4.263v21.612c0 4.984.583 10.253 1.73 15.716zm280.664 105.404c.204.097.527.28.971.622 10.921 8.4 35.454 19.002 58.275 13.773 13.479-3.088 23.958-11.411 30.293-24.049l.501-.999c2.976-5.951 3.419-5.868 4.644-5.636 2.721.505 3.752 1.847 4.9 9.262 2.339 14.953-6.881 40.678-34.504 51.862l-40.934.026c-14.27-4.741-23.618-12.396-27.77-22.787-2.579-6.432.628-19.812 3.624-22.074zm-72.169-1.667c0 25.381-20.672 46.05-46.076 46.075l-12.918.004c9.546-10.507 15.545-25.621 15.545-42.393v-28.578c6.802-4.614 13.263-9.867 19.244-15.605 14.849 8.013 24.205 23.423 24.205 40.497zm-136.82-15.9c3.894 2.008 7.851 3.809 11.856 5.352.044.017.089.034.134.05 9.675 3.518 18.067 5.343 26.411 5.744.12.006.239.009.359.009s.241-.003.361-.009c8.325-.401 16.708-2.226 26.367-5.738 4.357-1.575 8.658-3.455 12.882-5.577v19.755c0 23.176-14.377 42.059-32.148 42.402l-13.96.004c-17.824-.263-32.263-19.18-32.263-42.406v-19.586zm-44.116-60.805c8.383 1.091 16.667 1.639 24.897 1.638 13.277 0 26.417-1.42 39.602-4.262 3.913-.857 12.634-4.324 19.012-10.065 6.389 5.744 15.119 9.21 19.044 10.07 21.313 4.598 42.514 5.463 64.402 2.593-14.276 22.986-37.7 43.186-62.463 52.136-8.071 2.935-14.952 4.476-21.617 4.839-6.663-.362-13.533-1.896-21.575-4.814-24.244-9.361-47.198-29.515-61.302-52.135zm82.877-210.115c32.861.975 62.367 27.721 80.075 57.141-8.946-1.037-18.116-1.924-27.375-2.644-17.375-1.33-35.097-2.034-52.72-2.091-26.601.07-53.466 1.691-80.107 4.774 17.709-29.436 47.235-56.204 80.127-57.18zm-103.446 91.597v-10.091c0-4.53 3.839-6.68 7.132-7.145 31.911-4.531 64.322-6.871 96.289-6.955 17.215.056 34.569.745 51.571 2.047 12.143.945 24.136 2.181 35.646 3.674 3.038.394 6.076.815 9.098 1.235 3.288.464 7.127 2.614 7.127 7.144v10.091c0 2.279-.978 4.692-2.489 6.149-.417.402-1.231 1.071-2.09 1.04-.093-.003-.187-.005-.279-.005h-81.523c-4.142 0-7.5 3.358-7.5 7.5s3.358 7.5 7.5 7.5h81.251v16.975h-195.299v-17.088l79.398.113h.011c4.137 0 7.494-3.351 7.5-7.489.006-4.142-3.347-7.505-7.489-7.511l-79.775-.114c-3.295 0-6.079-3.238-6.079-7.07zm12.068 101.985c-.445-1.1-.862-2.21-1.262-3.327-.359-1.003-.524-2.03-.963-3.01-.927-2.074-1.406-4.488-1.889-6.705-.943-4.323-1.52-8.743-1.52-13.173v-21.612h195.298v19.401c0 5.325-.657 10.96-1.898 16.284-.568 2.417-1.38 4.745-2.044 7.13-.555 1.663-1.162 3.326-1.826 4.984-23.909 4.461-46.741 4.227-69.654-.716-5.418-1.187-14.106-6.995-14.756-9.864-.055-.242-.122-.48-.2-.715-1.048-3.144-3.976-5.256-7.285-5.256-3.31 0-6.237 2.112-7.285 5.256-.081.243-.149.491-.206.741-.637 2.859-9.305 8.651-14.697 9.833-22.982 4.953-45.863 5.197-69.813.749zm18.673 52.74c5.897 5.701 12.257 10.939 18.945 15.565v28.618c0 16.783 6.007 31.906 15.563 42.414l-13.456.004c-.016 0-.029 0-.045 0-12.22 0-23.753-4.802-32.477-13.522-7.602-7.599-12.227-17.334-13.3-27.802-.008-.278-.031-.558-.07-.84-.108-1.285-.174-2.579-.174-3.883-.001-16.688 9.877-32.429 25.014-40.554zm370.348 219.847c0 8.728-7.101 15.829-15.829 15.829h-142.098c-5 0-9.458-2.337-12.361-5.969-.2-.312-.421-.608-.663-.887-1.764-2.553-2.804-5.643-2.804-8.974v-32.173c0-5.35.351-10.724 1.041-15.972.541-4.107-2.35-7.874-6.457-8.415-4.09-.536-7.874 2.349-8.414 6.457-.776 5.896-1.17 11.928-1.17 17.93v32.173c0 2.191.234 4.327.67 6.39h-205.265v-30.598c0-4.142-3.358-7.5-7.5-7.5s-7.5 3.358-7.5 7.5v30.598h-65.928v-87.263c0-39.575 27.69-74.642 65.529-84.506 2.563 10.953 8.133 21.03 16.326 29.22 11.558 11.553 26.855 17.914 43.076 17.914h.06l45.118-.012c.135.001.268.012.403.012h13.096c.177 0 .352-.014.529-.016l44.492-.012c29.241-.028 53.737-20.698 59.68-48.171 16.119 3.172 31.729 10.66 43.022 20.744 3.402 6.546 8.239 12.183 14.523 16.852-19.551 6.676-36.707 21.377-47.51 41.576-1.954 3.652-.576 8.197 3.076 10.15 3.652 1.954 8.197.576 10.15-3.076 14.734-27.55 39.382-37.494 57.707-37.643.14.008.279.021.421.021h.005l43.255-.028c42.126 4.781 61.32 48.044 61.32 86.327z"/><path d="m415.77 426.02h-8.872c-5.756 0-5.922-5.825-5.922-6.489 0-1.667.502-3.197 1.377-4.199.913-1.045 2.279-1.553 4.177-1.553h15.363c4.143 0 7.5-3.358 7.5-7.5s-3.357-7.5-7.5-7.5h-2.279v-10.189c0-4.142-3.357-7.5-7.5-7.5s-7.5 3.358-7.5 7.5v10.281c-5.42.44-10.185 2.732-13.558 6.592-3.276 3.75-5.08 8.746-5.08 14.067 0 10.417 7.332 21.489 20.922 21.489h8.872c2.849 0 3.447 2.254 3.447 4.145 0 1.669-.581 3.269-1.593 4.387-1.155 1.276-2.895 1.923-5.171 1.923h-17.461c-4.143 0-7.5 3.358-7.5 7.5s3.357 7.5 7.5 7.5h7.523v8.714c0 4.142 3.357 7.5 7.5 7.5s7.5-3.358 7.5-7.5v-9.238c4.419-.933 8.303-3.1 11.23-6.335 3.527-3.899 5.471-9.031 5.471-14.451.002-11.092-7.757-19.144-18.446-19.144z"/></g></g></svg>