<svg
  height="512pt"
  viewBox="0 0 512 512"
  width="512pt"
  xmlns="http://www.w3.org/2000/svg"
><path
    d="m512 256c0 141.386719-114.613281 256-256 256s-256-114.613281-256-256 114.613281-256 256-256 256 114.613281 256 256zm0 0"
    fill="#004eb1"
  /><path
    d="m512 256c0-27.441406-4.335938-53.863281-12.328125-78.648438l-114.1875-114.1875-36.863281 95.355469-92.621094 10.96875-26.402344-3.128906-103.082031-103.195313-28.515625 198.136719 59.324219 182.035157 66.679687 66.675781c10.484375 1.308593 21.160156 1.988281 31.996094 1.988281 141.386719 0 256-114.613281 256-256zm0 0"
    fill="#002d6b"
  /><path
    d="m414 261.300781-28.515625-198.136719-36.863281 95.355469-92.621094 14.714844-92.621094-14.714844-36.863281-95.355469-28.515625 198.136719 59.324219 182.035157h15.460937l13.15625-87.132813h140.117188l13.15625 87.132813h15.460937zm0 0"
    fill="#ffdf47"
  /><path
    d="m414 261.300781-59.328125 182.027344h-15.453125l-13.160156-87.128906h-70.058594v-182.96875l92.621094-14.710938 36.867187-95.347656zm0 0"
    fill="#fec000"
  /><path
    d="m236.4375 291.140625c-.066406-.199219-15.769531-29.671875-44.167969-36.449219-28.398437-6.78125-55.875 12.574219-55.875 12.574219l.167969.039063c.066406.199218 17.402344 30.0625 44.167969 36.453124 26.769531 6.386719 55.875-12.578124 55.875-12.578124zm0 0"
    fill="#ff0335"
  /><path
    d="m218.351562 286.820312c-.046874-.117187-10.371093-17.605468-28.484374-21.929687-18.113282-4.324219-35.320313 6.699219-35.320313 6.699219l.105469.027344c.042968.117187 11.410156 17.851562 28.484375 21.929687 17.070312 4.074219 35.320312-6.703125 35.320312-6.703125zm0 0"
    fill="#fff"
  /><path
    d="m275.558594 291.140625c.066406-.199219 15.769531-29.671875 44.171875-36.449219 28.398437-6.78125 55.871093 12.574219 55.871093 12.574219l-.164062.039063c-.066406.199218-17.402344 30.0625-44.167969 36.453124-26.769531 6.386719-55.875-12.578124-55.875-12.578124zm0 0"
    fill="#c2001b"
  /><path
    d="m293.648438 286.820312c.046874-.117187 10.371093-17.605468 28.484374-21.929687 18.113282-4.324219 35.320313 6.699219 35.320313 6.699219l-.105469.027344c-.042968.117187-11.410156 17.851562-28.484375 21.929687-17.070312 4.074219-35.320312-6.703125-35.320312-6.703125zm0 0"
    fill="#fff5cb"
  /><path
    d="m163.378906 158.519531 92.621094 79.949219 92.621094-79.949219-92.621094 10.96875zm0 0"
    fill="#ff0335"
  /><path
    d="m348.621094 158.519531-92.621094 79.949219v-68.980469zm0 0"
    fill="#c2001b"
  /></svg>
