<svg height="512" viewBox="0 0 64 64" width="512" xmlns="http://www.w3.org/2000/svg"><g id="Place_holder" data-name="Place holder"><path d="m32 2a19.994 19.994 0 0 0 -20 20c0 11.05 20 40 20 40s20-28.95 20-40a19.994 19.994 0 0 0 -20-20zm0 31a11 11 0 1 1 11-11 10.994 10.994 0 0 1 -11 11z" fill="#ff9811"/><path d="m32 1a21.023 21.023 0 0 0 -21 21c0 11.229 19.354 39.375 20.177 40.568a1 1 0 0 0 1.646 0c.823-1.193 20.177-29.339 20.177-40.568a21.023 21.023 0 0 0 -21-21zm0 59.218c-3.748-5.579-19-28.863-19-38.218a19 19 0 0 1 38 0c0 9.353-15.252 32.638-19 38.218z"/><path d="m32 10a12 12 0 1 0 12 12 12.013 12.013 0 0 0 -12-12zm0 22a10 10 0 1 1 10-10 10.011 10.011 0 0 1 -10 10z"/></g></svg>