<svg height="512pt" viewBox="0 0 512 512" width="512pt" xmlns="http://www.w3.org/2000/svg"><path d="m512 256c0 141.386719-114.613281 256-256 256s-256-114.613281-256-256 114.613281-256 256-256 256 114.613281 256 256zm0 0" fill="#ffec97"/><path d="m512 256c0-25.257812-3.675781-49.652344-10.488281-72.699219-36.042969-36.3125-101.175781-101.257812-101.175781-101.257812-.339844 16.828125-4.285157 32.9375-8.695313 45.894531-.394531-.371094-.796875-.722656-1.195313-1.085938-3.0625-3.371093-6.261718-6.546874-9.5625-9.566406-35.523437-39.085937-88.789062-54.273437-124.863281-54.285156-.003906 0-.011719 0-.019531 0s-.015625 0-.019531 0c-33.066407.011719-80.574219 12.777344-115.625 45.007812l-28.691407-25.96875s-82.875 75.75-17.65625 146.316407c.253907 6.035156.769532 12.261719 1.578126 18.691406 9.101562 72.5 46.382812 138.136719 89.019531 178.460937l86.058593 86.0625c134.5625-7.601562 241.335938-119.109374 241.335938-255.570312zm0 0" fill="#ffdb2d"/><path d="m133.019531 156.988281s-20.566406-35.550781-21.355469-74.945312c0 0-93.699218 85.640625-3.445312 159.628906zm0 0" fill="#ff0335"/><path d="m378.980469 156.988281s20.566406-35.550781 21.355469-74.945312c0 0 93.699218 85.640625 3.445312 159.628906zm0 0" fill="#c2001b"/><path d="m256.019531 63c-.003906 0-.011719 0-.019531 0s-.015625 0-.019531 0c-62.792969.019531-177.722657 45.972656-160.394531 184.046875 14.101562 112.359375 95.890624 208.261719 160.402343 218.953125v.003906h.011719.011719v-.003906c64.511719-10.691406 146.296875-106.59375 160.402343-218.949219 17.328126-138.078125-97.601562-184.03125-160.394531-184.050781zm0 0" fill="#005fd2"/><path d="m416.414062 247.050781c-7.042968 56.179688-31.023437 108.242188-61.300781 147.597657-30.269531 39.359374-66.855469 66.011718-99.105469 71.351562h-.007812v-403h.019531c62.792969.019531 177.722657 45.976562 160.394531 184.050781zm0 0" fill="#00459f"/><path d="m238.460938 242.007812s-57.835938-16.511718-92.175782-84.179687c0 0-8.042968 16.042969-3.667968 38.667969 0 0-11.261719-6-19.261719-21.332032 0 0-16.933594 69.570313 28.65625 108.882813 34.566406 29.808594 88.125 3.574219 86.449219-42.039063zm0 0" fill="#7fc8f1"/><path d="m273.539062 242.007812s57.835938-16.511718 92.175782-84.179687c0 0 8.042968 16.042969 3.667968 38.667969 0 0 11.261719-6 19.261719-21.332032 0 0 16.933594 69.570313-28.65625 108.882813-34.566406 29.808594-88.125 3.574219-86.449219-42.039063zm0 0" fill="#00acea"/><path d="m256 378.082031c-6.75 0-44.316406-11.167969-77.992188-41.167969 0 0 31.992188 65.417969 77.992188 65.417969s77.992188-65.417969 77.992188-65.417969c-33.671876 30.003907-71.242188 41.167969-77.992188 41.167969zm0 0" fill="#fff"/><path d="m333.980469 336.929688c-.492188 1.011718-32.339844 65.398437-77.980469 65.398437v-24.25c6.75 0 44.308594-11.15625 77.980469-41.148437zm0 0" fill="#fff5cb"/><path d="m210.035156 254.5s-31.085937-10.5-38.085937-34.832031c0 0-2 7.613281-1.664063 13.167969 0 0-4.417968-2.835938-8.667968-10.5 0 0-7.5 49.039062 28.375 47.164062 6.570312-.34375 14.5-4.417969 20.042968-15zm0 0" fill="#fff"/><path d="m301.964844 254.5s31.085937-10.5 38.085937-34.832031c0 0 2 7.613281 1.664063 13.167969 0 0 4.417968-2.835938 8.667968-10.5 0 0 7.5 49.039062-28.375 47.164062-6.570312-.34375-14.5-4.417969-20.042968-15zm0 0" fill="#fff5cb"/><path d="m223.25 132.496094c-.472656-.34375-.933594-.695313-1.390625-1.050782-20.363281-15.882812-24.386719-40.878906-24.527344-57.460937-14.523437 5.285156-29.125 12.621094-42.601562 22.3125 24.332031 40.496094 68.519531 36.199219 68.519531 36.199219zm0 0" fill="#003d8d"/><path d="m290.140625 131.445312c-.457031.355469-.917969.707032-1.390625 1.050782 0 0 44.1875 4.296875 68.519531-36.199219-13.476562-9.691406-28.078125-17.027344-42.601562-22.3125-.140625 16.582031-4.164063 41.578125-24.527344 57.460937zm0 0" fill="#002d6b"/></svg>