<svg xmlns="http://www.w3.org/2000/svg" viewBox="0 0 128 128"><defs><style>.cls-1{isolation:isolate;}.cls-2{fill:#482b77;}.cls-3{fill:#6b3a99;stroke-width:3px;}.cls-10,.cls-3,.cls-5,.cls-6{stroke:#fff;stroke-miterlimit:10;}.cls-4{opacity:0.4;}.cls-10,.cls-5,.cls-6,.cls-9{fill:none;}.cls-10,.cls-5,.cls-6{stroke-linecap:round;stroke-width:2px;}.cls-6{stroke-dasharray:0 5.81;}.cls-7,.cls-8{fill:#fff;}.cls-7{opacity:0.2;mix-blend-mode:overlay;}.cls-9{stroke:#482b77;stroke-linejoin:bevel;}.cls-10{stroke-dasharray:0 6.09;}</style></defs><title>partnersArtboard 12 copy 4</title><g class="cls-1"><g id="Layer_1" data-name="Layer 1"><path class="cls-2" d="M66.89,5.56h0a4.55,4.55,0,0,1,6.44.68h0A4.56,4.56,0,0,0,79,7.44h0a4.54,4.54,0,0,1,6.16,2h0a4.56,4.56,0,0,0,5.28,2.34h0A4.57,4.57,0,0,1,96,15h0a4.56,4.56,0,0,0,4.67,3.4h0a4.55,4.55,0,0,1,4.81,4.33h0A4.56,4.56,0,0,0,109.36,27h0a4.55,4.55,0,0,1,3.81,5.24h0a4.57,4.57,0,0,0,2.88,5h0a4.56,4.56,0,0,1,2.64,5.92h0a4.56,4.56,0,0,0,1.78,5.49h0A4.55,4.55,0,0,1,121.82,55h0a4.56,4.56,0,0,0,.6,5.74h0a4.56,4.56,0,0,1,0,6.48h0a4.56,4.56,0,0,0-.6,5.74h0a4.55,4.55,0,0,1-1.35,6.33h0a4.56,4.56,0,0,0-1.78,5.49h0a4.56,4.56,0,0,1-2.64,5.92h0a4.57,4.57,0,0,0-2.88,5h0a4.55,4.55,0,0,1-3.81,5.24h0a4.56,4.56,0,0,0-3.86,4.29h0a4.55,4.55,0,0,1-4.81,4.33h0A4.56,4.56,0,0,0,96,113h0a4.57,4.57,0,0,1-5.61,3.24h0a4.56,4.56,0,0,0-5.28,2.34h0a4.54,4.54,0,0,1-6.16,2h0a4.56,4.56,0,0,0-5.64,1.2h0a4.55,4.55,0,0,1-6.44.68h0a4.58,4.58,0,0,0-5.78,0h0a4.55,4.55,0,0,1-6.44-.68h0a4.56,4.56,0,0,0-5.64-1.2h0a4.54,4.54,0,0,1-6.16-2h0a4.56,4.56,0,0,0-5.28-2.34h0A4.57,4.57,0,0,1,32,113h0a4.56,4.56,0,0,0-4.67-3.4h0a4.55,4.55,0,0,1-4.81-4.33h0A4.56,4.56,0,0,0,18.64,101h0a4.55,4.55,0,0,1-3.81-5.24h0a4.57,4.57,0,0,0-2.88-5h0A4.56,4.56,0,0,1,9.31,84.8h0a4.56,4.56,0,0,0-1.78-5.49h0A4.55,4.55,0,0,1,6.18,73h0a4.56,4.56,0,0,0-.6-5.74h0a4.56,4.56,0,0,1,0-6.48h0A4.56,4.56,0,0,0,6.18,55h0a4.55,4.55,0,0,1,1.35-6.33h0A4.56,4.56,0,0,0,9.31,43.2h0A4.56,4.56,0,0,1,12,37.28h0a4.57,4.57,0,0,0,2.88-5h0A4.55,4.55,0,0,1,18.64,27h0a4.56,4.56,0,0,0,3.86-4.29h0a4.55,4.55,0,0,1,4.81-4.33h0A4.56,4.56,0,0,0,32,15h0a4.57,4.57,0,0,1,5.61-3.24h0a4.56,4.56,0,0,0,5.28-2.34h0a4.54,4.54,0,0,1,6.16-2h0a4.56,4.56,0,0,0,5.64-1.2h0a4.55,4.55,0,0,1,6.44-.68h0A4.58,4.58,0,0,0,66.89,5.56Z"/><circle class="cls-3" cx="64" cy="64.21" r="49.37"/><g class="cls-4"><line class="cls-5" x1="89.19" y1="89.75" x2="89.19" y2="89.75"/><path class="cls-6" d="M93.14,85.5A33.37,33.37,0,0,0,93.53,45"/><line class="cls-5" x1="91.68" y1="42.71" x2="91.68" y2="42.71"/></g><path class="cls-7" d="M101.83,29.78A51.1,51.1,0,0,0,29.57,102Z"/><path class="cls-8" d="M54.65,30.94V32H51.57v8.09H50.32V32H47.24V30.94Z"/><path class="cls-8" d="M58.52,30.94v9.17H57.25V30.94Z"/><path class="cls-8" d="M67.78,30.94V32H63.3v2.86h4.27V36H63.3v3h4.58v1.12H62V30.94Z"/><path class="cls-8" d="M74.83,30.94a3.23,3.23,0,0,1,2.15.64,2.1,2.1,0,0,1,.73,1.66,2.28,2.28,0,0,1-.45,1.41,2.2,2.2,0,0,1-1.27.81A1.88,1.88,0,0,1,77,36a3.44,3.44,0,0,1,.44,1.68A10,10,0,0,0,78,40.11H76.6a8,8,0,0,1-.35-2,3.24,3.24,0,0,0-.55-1.84A2.54,2.54,0,0,0,74.11,36H72.57v4.14H71.31V30.94Zm-.24,3.95A1.94,1.94,0,0,0,76,34.5,1.61,1.61,0,0,0,76,32.39,2,2,0,0,0,74.6,32H72.54v2.88Z"/><path class="cls-8" d="M63.36,95.72c-8.57,0-14.08-3.83-16.38-7.42l-.57-.89,6.29-8.07L53.87,81a11.48,11.48,0,0,0,8.84,4.31c2.31,0,6.23-1.15,6.23-5.46,0-4-3.36-5.4-6.23-5.4a12.46,12.46,0,0,0-6.63,1.86l-.8.57-5.87-3.52L52.92,51H79.74V61.39H62.44l-.61,3.77a19.33,19.33,0,0,1,3.61-.29c10.4,0,15.84,7.52,15.84,14.95C81.28,90.26,72.27,95.72,63.36,95.72Z"/><path class="cls-2" d="M78.24,52.51v7.38H61.16l-1.08,6.69a.39.39,0,0,0,.39.46.32.32,0,0,0,.13,0,14.34,14.34,0,0,1,4.84-.65c6.25,0,14.34,3.93,14.34,13.45s-8.27,14.4-16.42,14.4-13.21-3.75-15.11-6.73l4.4-5.65a13,13,0,0,0,10.06,4.94c3.51,0,7.73-2,7.73-7s-4-6.9-7.73-6.9a13.86,13.86,0,0,0-7.5,2.14l-4.16-2.5L54.2,52.51h24m3-3H51.63L51.23,52,48.08,72.09l-.31,2,1.73,1L52.62,77l-2.34,3-4.4,5.65-1.3,1.68,1.14,1.78c2.51,3.92,8.46,8.11,17.64,8.11,9.65,0,19.42-6,19.42-17.4a15.37,15.37,0,0,0-6-12.67,18.86,18.86,0,0,0-11.35-3.78c-.64,0-1.24,0-1.81.06l.09-.54H81.24V49.51ZM55.35,78.64,57,77.51a10.88,10.88,0,0,1,5.76-1.59c1.11,0,4.73.28,4.73,3.9,0,.4-.13,4-4.73,4a10,10,0,0,1-7.62-3.69l-2-2.82.61.36,1.68,1Z"/><path class="cls-9" d="M75.07,56.21H58.19a.86.86,0,0,0-.86.74l-2,13.68a.42.42,0,0,0,.6.45A18.37,18.37,0,0,1,66.05,69.9c4.2.66,9,3.22,9,10.58S67.93,90.62,63.43,90.62s-9.14-2-10.44-3.28"/><g class="cls-4"><line class="cls-5" x1="37.58" y1="88.49" x2="37.58" y2="88.49"/><path class="cls-10" d="M34,83.6a33.33,33.33,0,0,1,1.72-37.27"/><line class="cls-5" x1="37.61" y1="43.97" x2="37.61" y2="43.97"/></g></g></g></svg>