<svg xmlns="http://www.w3.org/2000/svg" viewBox="0 0 128 128"><defs><style>.cls-1{isolation:isolate;}.cls-2{fill:#84152e;}.cls-3{fill:#bb2740;stroke-width:3px;}.cls-3,.cls-5,.cls-6,.cls-7{stroke:#fff;stroke-miterlimit:10;}.cls-4{opacity:0.4;}.cls-10,.cls-5,.cls-6,.cls-7{fill:none;}.cls-5,.cls-6,.cls-7{stroke-linecap:round;stroke-width:2px;}.cls-6{stroke-dasharray:0 6.09;}.cls-7{stroke-dasharray:0 5.75;}.cls-8,.cls-9{fill:#fff;}.cls-9{opacity:0.25;mix-blend-mode:overlay;}.cls-10{stroke:#bb2740;stroke-linejoin:bevel;stroke-width:1.5px;}</style></defs><title>partnersArtboard 12 copy</title><g class="cls-1"><g id="Layer_1" data-name="Layer 1"><path class="cls-2" d="M66.89,5.56h0a4.55,4.55,0,0,1,6.44.68h0A4.56,4.56,0,0,0,79,7.44h0a4.54,4.54,0,0,1,6.16,2h0a4.56,4.56,0,0,0,5.28,2.34h0A4.57,4.57,0,0,1,96,15h0a4.56,4.56,0,0,0,4.67,3.4h0a4.55,4.55,0,0,1,4.81,4.33h0A4.56,4.56,0,0,0,109.36,27h0a4.55,4.55,0,0,1,3.81,5.24h0a4.57,4.57,0,0,0,2.88,5h0a4.56,4.56,0,0,1,2.64,5.92h0a4.56,4.56,0,0,0,1.78,5.49h0A4.55,4.55,0,0,1,121.82,55h0a4.56,4.56,0,0,0,.6,5.74h0a4.56,4.56,0,0,1,0,6.48h0a4.56,4.56,0,0,0-.6,5.74h0a4.55,4.55,0,0,1-1.35,6.33h0a4.56,4.56,0,0,0-1.78,5.49h0a4.56,4.56,0,0,1-2.64,5.92h0a4.57,4.57,0,0,0-2.88,5h0a4.55,4.55,0,0,1-3.81,5.24h0a4.56,4.56,0,0,0-3.86,4.29h0a4.55,4.55,0,0,1-4.81,4.33h0A4.56,4.56,0,0,0,96,113h0a4.57,4.57,0,0,1-5.61,3.24h0a4.56,4.56,0,0,0-5.28,2.34h0a4.54,4.54,0,0,1-6.16,2h0a4.56,4.56,0,0,0-5.64,1.2h0a4.55,4.55,0,0,1-6.44.68h0a4.58,4.58,0,0,0-5.78,0h0a4.55,4.55,0,0,1-6.44-.68h0a4.56,4.56,0,0,0-5.64-1.2h0a4.54,4.54,0,0,1-6.16-2h0a4.56,4.56,0,0,0-5.28-2.34h0A4.57,4.57,0,0,1,32,113h0a4.56,4.56,0,0,0-4.67-3.4h0a4.55,4.55,0,0,1-4.81-4.33h0A4.56,4.56,0,0,0,18.64,101h0a4.55,4.55,0,0,1-3.81-5.24h0a4.57,4.57,0,0,0-2.88-5h0A4.56,4.56,0,0,1,9.31,84.8h0a4.56,4.56,0,0,0-1.78-5.49h0A4.55,4.55,0,0,1,6.18,73h0a4.56,4.56,0,0,0-.6-5.74h0a4.56,4.56,0,0,1,0-6.48h0A4.56,4.56,0,0,0,6.18,55h0a4.55,4.55,0,0,1,1.35-6.33h0A4.56,4.56,0,0,0,9.31,43.2h0A4.56,4.56,0,0,1,12,37.28h0a4.57,4.57,0,0,0,2.88-5h0A4.55,4.55,0,0,1,18.64,27h0a4.56,4.56,0,0,0,3.86-4.29h0a4.55,4.55,0,0,1,4.81-4.33h0A4.56,4.56,0,0,0,32,15h0a4.57,4.57,0,0,1,5.61-3.24h0a4.56,4.56,0,0,0,5.28-2.34h0a4.54,4.54,0,0,1,6.16-2h0a4.56,4.56,0,0,0,5.64-1.2h0a4.55,4.55,0,0,1,6.44-.68h0A4.58,4.58,0,0,0,66.89,5.56Z"/><circle class="cls-3" cx="64" cy="64.21" r="49.37"/><g class="cls-4"><line class="cls-5" x1="35.89" y1="87.22" x2="35.89" y2="87.22"/><path class="cls-6" d="M32.26,82.34A33.38,33.38,0,0,1,34,45.07"/><line class="cls-5" x1="35.92" y1="42.71" x2="35.92" y2="42.71"/></g><g class="cls-4"><line class="cls-5" x1="93.43" y1="85.13" x2="93.43" y2="85.13"/><path class="cls-7" d="M96.5,80.27a33.41,33.41,0,0,0-3-35.34"/><line class="cls-5" x1="91.68" y1="42.71" x2="91.68" y2="42.71"/></g><path class="cls-8" d="M55.8,30.94V32H52.72v8.09H51.46V32H48.39V30.94Z"/><path class="cls-8" d="M59.67,30.94v9.17H58.4V30.94Z"/><path class="cls-8" d="M68.93,30.94V32H64.45v2.86h4.26V36H64.45v3H69v1.11H63.18V30.94Z"/><path class="cls-8" d="M76,30.94a3.23,3.23,0,0,1,2.15.64,2.1,2.1,0,0,1,.73,1.66,2.28,2.28,0,0,1-.45,1.41,2.2,2.2,0,0,1-1.27.81,1.94,1.94,0,0,1,1,.58,3.44,3.44,0,0,1,.44,1.68,10.55,10.55,0,0,0,.5,2.39H77.75a8,8,0,0,1-.35-2,3.24,3.24,0,0,0-.55-1.84A2.54,2.54,0,0,0,75.26,36H73.72v4.14H72.46V30.94Zm-.24,3.95a1.94,1.94,0,0,0,1.42-.39,1.59,1.59,0,0,0-.06-2.11A2,2,0,0,0,75.75,32H73.69v2.88Z"/><path class="cls-9" d="M101.83,29.78A51.1,51.1,0,0,0,29.57,102Z"/><path class="cls-8" d="M45.83,94.5V83.77l.63-.45c3.82-2.74,8.4-6.26,13.6-10.47,6-4.88,7.29-7.94,7.29-9.65A3.13,3.13,0,0,0,66.69,61a3.34,3.34,0,0,0-2.25-.66,3.29,3.29,0,0,0-2.35.73,4.2,4.2,0,0,0-1,2.67L61,65.05H46.62l0-1.53a13,13,0,0,1,4.87-10.31c3.06-2.48,7.64-3.74,13.62-3.74,5.26,0,9.41,1.17,12.33,3.47a11.65,11.65,0,0,1,4.57,9.61,15.05,15.05,0,0,1-2.86,8.74,36.14,36.14,0,0,1-7.08,7.37q-2.76,2.19-6.21,4.73H82.17V94.5Z"/><path class="cls-2" d="M65.15,51c4.93,0,8.74,1.05,11.4,3.14a10.18,10.18,0,0,1,4,8.44A13.5,13.5,0,0,1,78,70.43a33.93,33.93,0,0,1-6.79,7q-4.2,3.36-9.9,7.41h19.4V93H47.33V84.54Q53.15,80.37,61,74T68.85,63.2a4.25,4.25,0,0,0-1.18-3.38,5.58,5.58,0,0,0-6.61.11,5.61,5.61,0,0,0-1.44,3.62H48.16a11.47,11.47,0,0,1,4.32-9.17Q56.68,51,65.15,51m0-3c-6.33,0-11.23,1.37-14.56,4.08a14.42,14.42,0,0,0-5.43,11.44l-.07,3.06H62.35l.26-2.72c.12-1.28.45-1.66.52-1.72a2.15,2.15,0,0,1,1.31-.32,2,2,0,0,1,1.26.29h0a3.11,3.11,0,0,1,.15,1.13c0,.91-.66,3.56-6.74,8.48-5.18,4.19-9.73,7.7-13.53,10.42l-1.25.9V96H83.67V81.89H70.4c.93-.71,1.81-1.4,2.64-2.06a37.1,37.1,0,0,0,7.38-7.68,16.49,16.49,0,0,0,3.13-9.6,13.08,13.08,0,0,0-5.14-10.79C75.21,49.24,70.75,48,65.15,48Z"/><path class="cls-10" d="M55.05,60.29c1.53-5.54,6.58-5.52,9.4-5.52,5.84,0,10.41,1.87,10.41,7.7,0,9.19-24,26.55-24,26.55H76.23"/></g></g></svg>