<?xml version="1.0" encoding="utf-8"?>
<!-- Generator: Adobe Illustrator 22.0.0, SVG Export Plug-In . SVG Version: 6.00 Build 0)  -->
<svg version="1.1" id="Layer_1" xmlns="http://www.w3.org/2000/svg" xmlns:xlink="http://www.w3.org/1999/xlink" x="0px" y="0px"
	 viewBox="0 0 128 128" style="enable-background:new 0 0 128 128;" xml:space="preserve">
<style type="text/css">
	.st0{fill:#775706;}
	.st1{fill:#C28D24;stroke:#FFFFFF;stroke-width:3;stroke-miterlimit:10;}
	.st2{opacity:0.4;}
	.st3{fill:none;stroke:#FFFFFF;stroke-width:2;stroke-linecap:round;stroke-miterlimit:10;}
	.st4{fill:none;stroke:#FFFFFF;stroke-width:2;stroke-linecap:round;stroke-miterlimit:10;stroke-dasharray:0,6.09;}
	.st5{fill:none;stroke:#FFFFFF;stroke-width:2;stroke-linecap:round;stroke-miterlimit:10;stroke-dasharray:0,5.75;}
	.st6{fill:#FFFFFF;}
	.st7{opacity:0.2;fill:#FFFFFF;enable-background:new    ;}
	.st8{fill:#9B6910;}
	.st9{fill:none;stroke:#9B6910;stroke-width:1.5;stroke-miterlimit:10;}
</style>
<path class="st0" d="M66.9,5.6L66.9,5.6c1.9-1.6,4.8-1.3,6.4,0.6c0,0,0,0,0,0l0,0c1.4,1.7,3.7,2.2,5.7,1.2l0,0
	c2.2-1.2,5-0.3,6.1,1.9c0,0,0,0,0,0.1l0,0c1,1.9,3.2,2.9,5.3,2.3l0,0c2.4-0.6,4.9,0.8,5.6,3.2l0,0c0.5,2.1,2.5,3.5,4.7,3.4l0,0
	c2.5-0.1,4.7,1.8,4.8,4.3c0,0,0,0,0,0.1l0,0c0.1,2.2,1.7,3.9,3.9,4.3l0,0c2.5,0.4,4.2,2.7,3.8,5.2c0,0,0,0,0,0.1l0,0
	c-0.3,2.1,0.9,4.2,2.9,5l0,0c2.4,0.9,3.5,3.5,2.7,5.9c0,0,0,0,0,0l0,0c-0.8,2,0,4.3,1.8,5.5l0,0c2.1,1.3,2.7,4.2,1.4,6.3
	c0,0,0,0,0,0.1l0,0c-1.2,1.8-0.9,4.2,0.6,5.7l0,0c1.8,1.8,1.8,4.7,0,6.4c0,0,0,0,0,0l0,0c-1.5,1.5-1.8,3.9-0.6,5.7l0,0
	c1.4,2.1,0.8,4.9-1.3,6.3c0,0,0,0,0,0l0,0c-1.8,1.2-2.6,3.5-1.8,5.5l0,0c0.9,2.3-0.2,5-2.6,5.9c0,0,0,0,0,0l0,0
	c-2,0.8-3.2,2.9-2.9,5l0,0c0.4,2.5-1.3,4.8-3.7,5.2c0,0,0,0-0.1,0l0,0c-2.1,0.3-3.8,2.1-3.9,4.3l0,0c-0.1,2.5-2.2,4.5-4.8,4.3
	c0,0,0,0-0.1,0l0,0c-2.2-0.1-4.2,1.3-4.7,3.4l0,0c-0.6,2.4-3.1,3.9-5.6,3.2c0,0,0,0,0,0l0,0c-2.1-0.6-4.3,0.4-5.3,2.3l0,0
	c-1.1,2.2-3.8,3.2-6.1,2c0,0,0,0-0.1,0l0,0c-1.9-1-4.3-0.5-5.6,1.2l0,0c-1.6,2-4.4,2.3-6.4,0.7c0,0,0,0,0,0l0,0
	c-1.7-1.4-4.1-1.4-5.8,0l0,0c-1.9,1.6-4.8,1.3-6.4-0.6c0,0,0,0,0,0l0,0c-1.4-1.7-3.7-2.2-5.6-1.2l0,0c-2.2,1.2-5,0.3-6.1-1.9
	c0,0,0,0,0-0.1l0,0c-1-1.9-3.2-2.9-5.3-2.3l0,0c-2.4,0.6-4.9-0.8-5.6-3.2l0,0c-0.5-2.1-2.5-3.5-4.7-3.4l0,0
	c-2.5,0.1-4.7-1.8-4.8-4.3c0,0,0,0,0-0.1l0,0c-0.1-2.2-1.7-3.9-3.9-4.3l0,0c-2.5-0.4-4.2-2.7-3.8-5.2c0,0,0,0,0-0.1l0,0
	c0.3-2.1-0.9-4.2-2.9-5l0,0c-2.4-0.9-3.6-3.5-2.7-5.9c0,0,0-0.1,0-0.1l0,0c0.8-2,0-4.3-1.8-5.5l0,0C5.4,78,4.8,75.1,6.2,73
	c0,0,0,0,0,0l0,0c1.2-1.8,0.9-4.2-0.6-5.7l0,0c-1.8-1.8-1.8-4.7,0-6.4c0,0,0,0,0,0l0,0c1.6-1.5,1.8-4,0.6-5.8l0,0
	c-1.4-2.1-0.8-4.9,1.3-6.3c0,0,0,0,0,0l0,0c1.8-1.2,2.6-3.5,1.8-5.5l0,0c-0.9-2.4,0.3-5,2.6-5.9c0,0,0,0,0.1,0l0,0
	c2-0.8,3.2-2.9,2.9-5l0,0c-0.4-2.5,1.2-4.8,3.7-5.3c0,0,0,0,0.1,0l0,0c2.1-0.3,3.8-2.1,3.9-4.3l0,0c0.1-2.5,2.2-4.5,4.8-4.3
	c0,0,0,0,0.1,0l0,0c2.2,0.1,4.1-1.3,4.7-3.4l0,0c0.6-2.4,3.1-3.9,5.6-3.2c0,0,0,0,0,0l0,0c2.1,0.6,4.3-0.4,5.3-2.3l0,0
	c1.1-2.2,3.8-3.2,6.1-2c0,0,0,0,0.1,0l0,0c1.9,1,4.3,0.5,5.6-1.2l0,0c1.6-2,4.4-2.3,6.4-0.7c0,0,0,0,0,0l0,0
	C62.8,6.9,65.2,6.9,66.9,5.6z"/>
<title>partnersArtboard 12 copy 3</title>
<g>
	<g id="Layer_1_1_">
		<circle class="st1" cx="64" cy="64.2" r="49.4"/>
		<g class="st2">
			<line class="st3" x1="35.9" y1="87.2" x2="35.9" y2="87.2"/>
			<path class="st4" d="M32.3,82.3C25.2,70.7,25.9,56,34,45.1"/>
			<line class="st3" x1="35.9" y1="42.7" x2="35.9" y2="42.7"/>
		</g>
		<g class="st2">
			<line class="st3" x1="93.4" y1="85.1" x2="93.4" y2="85.1"/>
			<path class="st5" d="M96.5,80.3c5.9-11.4,4.7-25.1-3-35.3"/>
			<line class="st3" x1="91.7" y1="42.7" x2="91.7" y2="42.7"/>
		</g>
		<path class="st6" d="M55.8,30.9V32h-3.1v8.1h-1.3V32h-3.1v-1.1H55.8z"/>
		<path class="st6" d="M59.7,30.9v9.2h-1.3v-9.2H59.7z"/>
		<path class="st6" d="M68.9,30.9V32h-4.5v2.9h4.3v1.1h-4.3V39H69v1.1h-5.8v-9.2H68.9z"/>
		<path class="st6" d="M76,30.9c0.8-0.1,1.5,0.2,2.2,0.6c0.5,0.4,0.8,1,0.7,1.7c0,0.5-0.1,1-0.4,1.4c-0.3,0.4-0.8,0.7-1.3,0.8
			c0.4,0.1,0.7,0.3,1,0.6c0.3,0.5,0.4,1.1,0.4,1.7c0.1,0.8,0.2,1.6,0.5,2.4h-1.4c-0.2-0.6-0.3-1.3-0.3-2c0-0.7-0.2-1.3-0.6-1.8
			c-0.5-0.3-1-0.4-1.6-0.3h-1.5v4.1h-1.3v-9.2H76z M75.8,34.9c0.5,0.1,1-0.1,1.4-0.4c0.2-0.3,0.4-0.6,0.4-1c0-0.4-0.1-0.8-0.4-1.1
			c-0.4-0.3-0.9-0.4-1.4-0.4h-2.1v2.9L75.8,34.9z"/>
		<path class="st7" d="M100.2,29.8C80.3,9.9,49.5,8.2,29.6,28.2c-19.9,20-19.9,52.3,0,72.3L100.2,29.8z"/>
		<path class="st6" d="M63.4,96.5V84.1H44.2v-8.7l18.6-25.9h12.5v24.5h5.2v10.1h-5.2v12.4H63.4z M63.6,74.1V65L57,74.1H63.6z"/>
		<path class="st8" d="M73.8,51v24.4H79v7.1h-5.2V95h-8.9V82.6H45.7v-6.7L63.5,51H73.8 M54.1,75.6h11V60.4L54.1,75.6 M76.8,48H62
			l-0.9,1.2L43.2,74.1l-0.6,0.8v10.7h19.2V98h14.9V85.6H82V72.4h-5.2V48z M59.9,72.6l2.2-3v3H59.9z"/>
		<polyline class="st9" points="69.4,92 69.4,54.4 65.1,54.4 49.3,76.7 49.3,79 75.1,79 		"/>
	</g>
</g>
</svg>
