<?xml version="1.0" encoding="utf-8"?>
<!-- Generator: Adobe Illustrator 22.0.0, SVG Export Plug-In . SVG Version: 6.00 Build 0)  -->
<svg version="1.1" id="Layer_1" xmlns="http://www.w3.org/2000/svg" xmlns:xlink="http://www.w3.org/1999/xlink" x="0px" y="0px"
	 viewBox="0 0 128 128" style="enable-background:new 0 0 128 128;" xml:space="preserve">
<style type="text/css">
	.st0{fill:#044928;}
	.st1{fill:#078C59;stroke:#FFFFFF;stroke-width:3;stroke-miterlimit:10;}
	.st2{opacity:0.2;fill:#FFFFFF;enable-background:new    ;}
	.st3{opacity:0.4;}
	.st4{fill:none;stroke:#FFFFFF;stroke-width:2;stroke-linecap:round;stroke-miterlimit:10;}
	.st5{fill:none;stroke:#FFFFFF;stroke-width:2;stroke-linecap:round;stroke-miterlimit:10;stroke-dasharray:0,6.09;}
	.st6{fill:none;stroke:#FFFFFF;stroke-width:2;stroke-linecap:round;stroke-miterlimit:10;stroke-dasharray:0,5.75;}
	.st7{fill:#FFFFFF;}
	.st8{fill:#055631;}
	.st9{fill:none;stroke:#078C59;stroke-width:1.5;stroke-linejoin:bevel;}
</style>
<title>partnersArtboard 12 copy 2</title>
<g>
	<g id="Layer_1_1_">
		<path class="st0" d="M66.9,5.6L66.9,5.6c1.9-1.6,4.8-1.3,6.4,0.6c0,0,0,0,0,0l0,0c1.4,1.7,3.7,2.2,5.7,1.2l0,0
			c2.2-1.2,5-0.3,6.1,1.9c0,0,0,0,0,0.1l0,0c1,1.9,3.2,2.9,5.3,2.3l0,0c2.4-0.6,4.9,0.8,5.6,3.2l0,0c0.5,2.1,2.5,3.5,4.7,3.4l0,0
			c2.5-0.1,4.7,1.8,4.8,4.3c0,0,0,0,0,0.1l0,0c0.1,2.2,1.7,3.9,3.9,4.3l0,0c2.5,0.4,4.2,2.7,3.8,5.2c0,0,0,0,0,0.1l0,0
			c-0.3,2.1,0.9,4.2,2.9,5l0,0c2.4,0.9,3.5,3.5,2.7,5.9c0,0,0,0,0,0l0,0c-0.8,2,0,4.3,1.8,5.5l0,0c2.1,1.3,2.7,4.2,1.4,6.3
			c0,0,0,0,0,0.1l0,0c-1.2,1.8-0.9,4.2,0.6,5.7l0,0c1.8,1.8,1.8,4.7,0,6.4c0,0,0,0,0,0l0,0c-1.5,1.5-1.8,3.9-0.6,5.7l0,0
			c1.4,2.1,0.8,4.9-1.3,6.3c0,0,0,0,0,0l0,0c-1.8,1.2-2.6,3.5-1.8,5.5l0,0c0.9,2.3-0.2,5-2.6,5.9c0,0,0,0,0,0l0,0
			c-2,0.8-3.2,2.9-2.9,5l0,0c0.4,2.5-1.3,4.8-3.7,5.2c0,0,0,0-0.1,0l0,0c-2.1,0.3-3.8,2.1-3.9,4.3l0,0c-0.1,2.5-2.2,4.5-4.8,4.3
			c0,0,0,0-0.1,0l0,0c-2.2-0.1-4.2,1.3-4.7,3.4l0,0c-0.6,2.4-3.1,3.9-5.6,3.2c0,0,0,0,0,0l0,0c-2.1-0.6-4.3,0.4-5.3,2.3l0,0
			c-1.1,2.2-3.8,3.2-6.1,2c0,0,0,0-0.1,0l0,0c-1.9-1-4.3-0.5-5.6,1.2l0,0c-1.6,2-4.4,2.3-6.4,0.7c0,0,0,0,0,0l0,0
			c-1.7-1.4-4.1-1.4-5.8,0l0,0c-1.9,1.6-4.8,1.3-6.4-0.6c0,0,0,0,0,0l0,0c-1.4-1.7-3.7-2.2-5.6-1.2l0,0c-2.2,1.2-5,0.3-6.1-1.9
			c0,0,0,0,0-0.1l0,0c-1-1.9-3.2-2.9-5.3-2.3l0,0c-2.4,0.6-4.9-0.8-5.6-3.2l0,0c-0.5-2.1-2.5-3.5-4.7-3.4l0,0
			c-2.5,0.1-4.7-1.8-4.8-4.3c0,0,0,0,0-0.1l0,0c-0.1-2.2-1.7-3.9-3.9-4.3l0,0c-2.5-0.4-4.2-2.7-3.8-5.2c0,0,0,0,0-0.1l0,0
			c0.3-2.1-0.9-4.2-2.9-5l0,0c-2.4-0.9-3.6-3.5-2.7-5.9c0,0,0-0.1,0-0.1l0,0c0.8-2,0-4.3-1.8-5.5l0,0C5.4,78,4.8,75.1,6.2,73
			c0,0,0,0,0,0l0,0c1.2-1.8,0.9-4.2-0.6-5.7l0,0c-1.8-1.8-1.8-4.7,0-6.4c0,0,0,0,0,0l0,0c1.6-1.5,1.8-4,0.6-5.8l0,0
			c-1.4-2.1-0.8-4.9,1.3-6.3c0,0,0,0,0,0l0,0c1.8-1.2,2.6-3.5,1.8-5.5l0,0c-0.9-2.4,0.3-5,2.6-5.9c0,0,0,0,0.1,0l0,0
			c2-0.8,3.2-2.9,2.9-5l0,0c-0.4-2.5,1.2-4.8,3.7-5.3c0,0,0,0,0.1,0l0,0c2.1-0.3,3.8-2.1,3.9-4.3l0,0c0.1-2.5,2.2-4.5,4.8-4.3
			c0,0,0,0,0.1,0l0,0c2.2,0.1,4.1-1.3,4.7-3.4l0,0c0.6-2.4,3.1-3.9,5.6-3.2c0,0,0,0,0,0l0,0c2.1,0.6,4.3-0.4,5.3-2.3l0,0
			c1.1-2.2,3.8-3.2,6.1-2c0,0,0,0,0.1,0l0,0c1.9,1,4.3,0.5,5.6-1.2l0,0c1.6-2,4.4-2.3,6.4-0.7c0,0,0,0,0,0l0,0
			C62.8,6.9,65.2,6.9,66.9,5.6z"/>
		<circle class="st1" cx="64" cy="64.2" r="49.4"/>
		<path class="st2" d="M100,27.8C79.5,8.4,47.1,9.4,27.8,29.9C9.2,49.6,9.2,80.3,27.8,100L100,27.8z"/>
		<g class="st3">
			<line class="st4" x1="35.9" y1="87.2" x2="35.9" y2="87.2"/>
			<path class="st5" d="M32.3,82.3C25.2,70.7,25.9,56,34,45.1"/>
			<line class="st4" x1="35.9" y1="42.7" x2="35.9" y2="42.7"/>
		</g>
		<g class="st3">
			<line class="st4" x1="93.4" y1="85.1" x2="93.4" y2="85.1"/>
			<path class="st6" d="M96.5,80.3c5.9-11.4,4.7-25.1-3-35.3"/>
			<line class="st4" x1="91.7" y1="42.7" x2="91.7" y2="42.7"/>
		</g>
		<path class="st7" d="M55.8,30.9V32h-3.1v8.1h-1.3V32h-3.1v-1.1H55.8z"/>
		<path class="st7" d="M59.7,30.9v9.2h-1.3v-9.2H59.7z"/>
		<path class="st7" d="M68.9,30.9V32h-4.5v2.9h4.3V36h-4.3v3H69v1.1h-5.8v-9.2H68.9z"/>
		<path class="st7" d="M76,30.9c0.8-0.1,1.5,0.2,2.2,0.6c0.5,0.4,0.8,1,0.7,1.7c0,0.5-0.1,1-0.4,1.4c-0.3,0.4-0.8,0.7-1.3,0.8
			c0.4,0.1,0.7,0.3,1,0.6c0.3,0.5,0.4,1.1,0.4,1.7c0.1,0.8,0.2,1.6,0.5,2.4h-1.4c-0.2-0.6-0.3-1.3-0.3-2c0-0.7-0.2-1.3-0.6-1.8
			c-0.5-0.3-1-0.4-1.6-0.3h-1.5v4.1h-1.3v-9.2H76z M75.8,34.9c0.5,0.1,1-0.1,1.4-0.4c0.5-0.6,0.5-1.5-0.1-2.1
			c-0.4-0.3-0.9-0.4-1.4-0.4h-2.1v2.9L75.8,34.9z"/>
		<path class="st7" d="M63.9,97c-4.9,0-8.7-1.2-11.5-3.5s-4.2-5.8-4.2-10.3v-1.8h12.3l0.1,1.4c0,1.2,0.4,2.4,1.1,3.3
			c1.7,1.4,4.2,1.3,5.8-0.1c0.8-0.9,1.2-2,1.1-3.2c0.1-1.4-0.4-2.7-1.5-3.6c-0.8-0.6-2.7-1.3-7-1.3h-2.1V67.7h1.5
			c4.5,0,6.6-0.7,7.5-1.3c1.2-0.8,1.8-2.2,1.7-3.6c0-1-0.3-1.9-1-2.6c-0.8-0.7-1.8-1.1-2.8-1c-1-0.1-2,0.3-2.7,1
			c-0.7,0.8-1.1,1.8-1.1,2.9v1.5H48.7l0.1-1.6c0-3.8,1.7-7.5,4.7-9.9c2.8-2.3,6.7-3.5,11.3-3.5s8.7,1.3,11.6,3.8
			c2.8,2.3,4.5,5.8,4.4,9.5c0.1,4.1-2.2,7.9-5.8,9.7c1.4,0.8,2.6,1.8,3.6,3c1.7,2.1,2.6,4.7,2.6,7.5c0.1,4-1.8,7.8-5.1,10.2
			C72.5,95.8,68.2,97.1,63.9,97z"/>
		<path class="st8" d="M64.7,51c4.4,0,8,1.1,10.6,3.4c2.5,2,3.9,5.1,3.9,8.3c0,4.8-2.7,8.1-8.2,9.7c2.5,0.6,4.7,2,6.4,3.9
			c1.5,1.8,2.3,4.1,2.2,6.5c0.1,3.6-1.6,7-4.6,9.1c-3.2,2.4-7.2,3.7-11.2,3.5c-4.5,0-8-1-10.5-3.1c-2.5-2.1-3.7-5.2-3.7-9.2v-0.2
			h9.4c0,1.6,0.5,3.1,1.5,4.2c2.3,2,5.8,2,8-0.1c1.1-1.2,1.6-2.7,1.5-4.2c0.1-1.9-0.7-3.7-2.1-4.8c-1.4-1-4-1.5-7.8-1.5h-0.6v-7.2
			c4,0,6.8-0.5,8.3-1.6c1.6-1.1,2.5-2.9,2.3-4.8c0-1.4-0.5-2.7-1.4-3.7c-1-1-2.4-1.5-3.8-1.5c-1.4-0.1-2.7,0.5-3.7,1.5
			c-1,1.1-1.5,2.5-1.5,3.9h-9.4c0-3.4,1.5-6.7,4.1-8.8C57,52.1,60.4,51.1,64.7,51 M64.7,48.1c-5,0-9.1,1.3-12.2,3.8
			c-3.3,2.7-5.2,6.7-5.2,11L47.1,66h15.5l0.1-2.9c-0.1-0.7,0.2-1.4,0.6-1.9c0.4-0.4,1-0.6,1.6-0.6c0.6-0.1,1.3,0.1,1.7,0.6
			c0.4,0.4,0.6,1,0.6,1.5c0.1,0.9-0.3,1.8-1,2.3c-0.5,0.3-2.1,1.1-6.6,1.1h-3v13.2h3.6c4.4,0,5.8,0.8,6.1,1s0.9,0.7,0.9,2.4
			c0.1,0.8-0.2,1.6-0.8,2.2c-0.5,0.5-1.2,0.7-1.8,0.7c-1.3,0-1.7-0.4-1.8-0.6c-0.5-0.7-0.7-1.5-0.7-2.3l-0.1-2.9H46.7v3.2
			c0,5,1.6,8.8,4.8,11.5s7.2,3.8,12.4,3.8c4.7,0.1,9.3-1.3,13-4.2c3.6-2.7,5.8-6.9,5.7-11.4c0.1-3.1-1-6-2.9-8.4
			c-0.6-0.7-1.3-1.4-2.1-2c3-2.3,4.7-6,4.6-9.8c0-4.1-1.8-8-5-10.6C74,49.5,69.8,48.1,64.7,48.1L64.7,48.1z"/>
		<path class="st9" d="M56,59.3c0,0,1.1-5.1,9.2-5.1c5.8,0,9.3,4,9.3,7.7c0,8.5-11.4,11-11.4,11S74.8,75,74.8,83.2
			c0,7.2-7.2,9.1-10.2,9.1c-2.1,0-7.5,0-9.3-5.8"/>
	</g>
</g>
</svg>
