<svg xmlns="http://www.w3.org/2000/svg" viewBox="0 0 128 128"><defs><style>.cls-1{isolation:isolate;}.cls-2{fill:#262660;}.cls-3{fill:#304c99;}.cls-3,.cls-5,.cls-6{stroke:#fff;}.cls-3,.cls-5,.cls-6,.cls-8,.cls-9{stroke-miterlimit:10;}.cls-3,.cls-8{stroke-width:3px;}.cls-4{opacity:0.4;}.cls-5,.cls-6,.cls-9{fill:none;}.cls-5,.cls-6{stroke-linecap:round;stroke-width:2px;}.cls-6{stroke-dasharray:0 5.77;}.cls-10,.cls-7,.cls-8{fill:#fff;}.cls-7{opacity:0.2;mix-blend-mode:overlay;}.cls-8{stroke:#222256;}.cls-9{stroke:#283d8b;stroke-width:1.5px;}</style></defs><title>partnersArtboard 12</title><g class="cls-1"><g id="Layer_1" data-name="Layer 1"><path class="cls-2" d="M66.89,5.56h0a4.55,4.55,0,0,1,6.44.68h0A4.56,4.56,0,0,0,79,7.44h0a4.54,4.54,0,0,1,6.16,2h0a4.56,4.56,0,0,0,5.28,2.34h0A4.57,4.57,0,0,1,96,15h0a4.56,4.56,0,0,0,4.67,3.4h0a4.55,4.55,0,0,1,4.81,4.33h0A4.56,4.56,0,0,0,109.36,27h0a4.55,4.55,0,0,1,3.81,5.24h0a4.57,4.57,0,0,0,2.88,5h0a4.56,4.56,0,0,1,2.64,5.92h0a4.56,4.56,0,0,0,1.78,5.49h0A4.55,4.55,0,0,1,121.82,55h0a4.56,4.56,0,0,0,.6,5.74h0a4.56,4.56,0,0,1,0,6.48h0a4.56,4.56,0,0,0-.6,5.74h0a4.55,4.55,0,0,1-1.35,6.33h0a4.56,4.56,0,0,0-1.78,5.49h0a4.56,4.56,0,0,1-2.64,5.92h0a4.57,4.57,0,0,0-2.88,5h0a4.55,4.55,0,0,1-3.81,5.24h0a4.56,4.56,0,0,0-3.86,4.29h0a4.55,4.55,0,0,1-4.81,4.33h0A4.56,4.56,0,0,0,96,113h0a4.57,4.57,0,0,1-5.61,3.24h0a4.56,4.56,0,0,0-5.28,2.34h0a4.54,4.54,0,0,1-6.16,2h0a4.56,4.56,0,0,0-5.64,1.2h0a4.55,4.55,0,0,1-6.44.68h0a4.58,4.58,0,0,0-5.78,0h0a4.55,4.55,0,0,1-6.44-.68h0a4.56,4.56,0,0,0-5.64-1.2h0a4.54,4.54,0,0,1-6.16-2h0a4.56,4.56,0,0,0-5.28-2.34h0A4.57,4.57,0,0,1,32,113h0a4.56,4.56,0,0,0-4.67-3.4h0a4.55,4.55,0,0,1-4.81-4.33h0A4.56,4.56,0,0,0,18.64,101h0a4.55,4.55,0,0,1-3.81-5.24h0a4.57,4.57,0,0,0-2.88-5h0A4.56,4.56,0,0,1,9.31,84.8h0a4.56,4.56,0,0,0-1.78-5.49h0A4.55,4.55,0,0,1,6.18,73h0a4.56,4.56,0,0,0-.6-5.74h0a4.56,4.56,0,0,1,0-6.48h0A4.56,4.56,0,0,0,6.18,55h0a4.55,4.55,0,0,1,1.35-6.33h0A4.56,4.56,0,0,0,9.31,43.2h0A4.56,4.56,0,0,1,12,37.28h0a4.57,4.57,0,0,0,2.88-5h0A4.55,4.55,0,0,1,18.64,27h0a4.56,4.56,0,0,0,3.86-4.29h0a4.55,4.55,0,0,1,4.81-4.33h0A4.56,4.56,0,0,0,32,15h0a4.57,4.57,0,0,1,5.61-3.24h0a4.56,4.56,0,0,0,5.28-2.34h0a4.54,4.54,0,0,1,6.16-2h0a4.56,4.56,0,0,0,5.64-1.2h0a4.55,4.55,0,0,1,6.44-.68h0A4.58,4.58,0,0,0,66.89,5.56Z"/><circle class="cls-3" cx="64" cy="64.21" r="49.37"/><g class="cls-4"><line class="cls-5" x1="42.72" y1="93.05" x2="42.72" y2="93.05"/><path class="cls-6" d="M38.16,89.52a33.35,33.35,0,0,1-4.08-44.58"/><line class="cls-5" x1="35.92" y1="42.71" x2="35.92" y2="42.71"/></g><g class="cls-4"><line class="cls-5" x1="84.87" y1="93.05" x2="84.87" y2="93.05"/><path class="cls-6" d="M89.44,89.52a33.36,33.36,0,0,0,4.07-44.58"/><line class="cls-5" x1="91.68" y1="42.71" x2="91.68" y2="42.71"/></g><path class="cls-7" d="M101.83,29.78A51.1,51.1,0,0,0,29.57,102Z"/><path class="cls-8" d="M72.39,98.58H57.91V63H52V50.44h20.4Z"/><polyline class="cls-9" points="57.06 56.4 64.97 56.41 64.97 93.77"/><path class="cls-10" d="M54.65,30.94V32H51.57v8.09H50.31V32H47.24V30.94Z"/><path class="cls-10" d="M58.52,30.94v9.17H57.25V30.94Z"/><path class="cls-10" d="M67.78,30.94V32H63.3v2.86h4.26V36H63.3v3h4.58v1.12H62V30.94Z"/><path class="cls-10" d="M74.83,30.94a3.17,3.17,0,0,1,2.15.64,2.1,2.1,0,0,1,.73,1.66,2.28,2.28,0,0,1-.45,1.41,2.2,2.2,0,0,1-1.27.81A1.88,1.88,0,0,1,77,36a3.55,3.55,0,0,1,.44,1.68,10.55,10.55,0,0,0,.5,2.39H76.6a8,8,0,0,1-.35-2,3.24,3.24,0,0,0-.55-1.84A2.54,2.54,0,0,0,74.11,36H72.57v4.14H71.31V30.94Zm-.24,3.95A1.94,1.94,0,0,0,76,34.5a1.42,1.42,0,0,0,.37-1,1.37,1.37,0,0,0-.43-1.1A2,2,0,0,0,74.6,32H72.54v2.88Z"/></g></g></svg>
